<svg width="411" height="823" viewBox="0 0 411 823" fill="none" xmlns="http://www.w3.org/2000/svg">
<g clip-path="url(#clip0)">
<rect width="411" height="823" fill="#ECF8FF"/>
<g filter="url(#filter0_f)">
<path d="M354 786.5C354 937.55 231.326 1060 80 1060C-71.326 1060 -194 937.55 -194 786.5C-194 635.45 -71.326 513 80 513C231.326 513 354 635.45 354 786.5Z" fill="#E36A6A"/>
</g>
<g filter="url(#filter1_f)">
<path d="M506 458C506 580.055 407.279 679 285.5 679C163.721 679 65 580.055 65 458C65 335.945 163.721 237 285.5 237C407.279 237 506 335.945 506 458Z" fill="#F59A9A"/>
</g>
<g filter="url(#filter2_f)">
<path d="M384 156.5C384 288.22 277.668 395 146.5 395C15.3324 395 -91 288.22 -91 156.5C-91 24.7801 15.3324 -82 146.5 -82C277.668 -82 384 24.7801 384 156.5Z" fill="#F4D4D4"/>
</g>
</g>
<defs>
<filter id="filter0_f" x="-244" y="463" width="648" height="647" filterUnits="userSpaceOnUse" color-interpolation-filters="sRGB">
<feFlood flood-opacity="0" result="BackgroundImageFix"/>
<feBlend mode="normal" in="SourceGraphic" in2="BackgroundImageFix" result="shape"/>
<feGaussianBlur stdDeviation="25" result="effect1_foregroundBlur"/>
</filter>
<filter id="filter1_f" x="15" y="187" width="541" height="542" filterUnits="userSpaceOnUse" color-interpolation-filters="sRGB">
<feFlood flood-opacity="0" result="BackgroundImageFix"/>
<feBlend mode="normal" in="SourceGraphic" in2="BackgroundImageFix" result="shape"/>
<feGaussianBlur stdDeviation="25" result="effect1_foregroundBlur"/>
</filter>
<filter id="filter2_f" x="-141" y="-132" width="575" height="577" filterUnits="userSpaceOnUse" color-interpolation-filters="sRGB">
<feFlood flood-opacity="0" result="BackgroundImageFix"/>
<feBlend mode="normal" in="SourceGraphic" in2="BackgroundImageFix" result="shape"/>
<feGaussianBlur stdDeviation="25" result="effect1_foregroundBlur"/>
</filter>
<clipPath id="clip0">
<rect width="411" height="823" fill="white"/>
</clipPath>
</defs>
</svg>
